<svg width="552" height="288" viewBox="0 0 552 288" fill="none" xmlns="http://www.w3.org/2000/svg">
<path d="M115.102 191L130.557 97.9091H153.057L140.693 172.727H179.42L176.33 191H115.102ZM220.523 192.318C213.159 192.318 207.083 190.803 202.295 187.773C197.538 184.742 194.189 180.515 192.25 175.091C190.311 169.667 189.932 163.364 191.114 156.182C192.295 149.03 194.735 142.758 198.432 137.364C202.129 131.97 206.856 127.773 212.614 124.773C218.371 121.773 224.902 120.273 232.205 120.273C239.538 120.273 245.583 121.788 250.341 124.818C255.129 127.848 258.492 132.076 260.432 137.5C262.402 142.924 262.795 149.242 261.614 156.455C260.432 163.606 257.977 169.879 254.25 175.273C250.523 180.636 245.795 184.818 240.068 187.818C234.341 190.818 227.826 192.318 220.523 192.318ZM223.023 175.545C225.75 175.545 228.189 174.727 230.341 173.091C232.523 171.455 234.356 169.167 235.841 166.227C237.326 163.288 238.386 159.879 239.023 156C239.659 152.182 239.72 148.833 239.205 145.955C238.72 143.045 237.689 140.788 236.114 139.182C234.538 137.545 232.402 136.727 229.705 136.727C226.977 136.727 224.523 137.561 222.341 139.227C220.159 140.864 218.326 143.152 216.841 146.091C215.386 149 214.341 152.409 213.705 156.318C213.068 160.136 212.992 163.485 213.477 166.364C213.962 169.242 215.008 171.5 216.614 173.136C218.22 174.742 220.356 175.545 223.023 175.545ZM295.409 218.636C288.742 218.636 283.197 217.712 278.773 215.864C274.348 214.015 271.045 211.485 268.864 208.273C266.682 205.061 265.636 201.424 265.727 197.364L287 196.182C287.182 197.636 287.712 198.894 288.591 199.955C289.47 201.015 290.727 201.818 292.364 202.364C294 202.939 296.03 203.227 298.455 203.227C302.182 203.227 305.424 202.318 308.182 200.5C310.939 198.682 312.636 195.545 313.273 191.091L315.318 178.818H314.545C313.333 180.97 311.697 182.894 309.636 184.591C307.576 186.288 305.136 187.621 302.318 188.591C299.5 189.561 296.379 190.045 292.955 190.045C287.833 190.045 283.364 188.864 279.545 186.5C275.727 184.106 272.97 180.409 271.273 175.409C269.576 170.379 269.379 163.909 270.682 156C272.045 147.848 274.47 141.136 277.955 135.864C281.439 130.561 285.5 126.636 290.136 124.091C294.803 121.545 299.576 120.273 304.455 120.273C308.121 120.273 311.152 120.909 313.545 122.182C315.939 123.424 317.818 125.03 319.182 127C320.545 128.97 321.515 131.015 322.091 133.136H322.727L324.682 121.182H346.818L335.182 191.273C334.242 197.212 331.955 202.212 328.318 206.273C324.682 210.333 320.03 213.409 314.364 215.5C308.697 217.591 302.379 218.636 295.409 218.636ZM303.227 173.864C305.924 173.864 308.364 173.152 310.545 171.727C312.727 170.303 314.561 168.258 316.045 165.591C317.53 162.924 318.576 159.727 319.182 156C319.788 152.212 319.788 148.955 319.182 146.227C318.606 143.47 317.485 141.348 315.818 139.864C314.152 138.379 311.955 137.636 309.227 137.636C306.47 137.636 304.015 138.394 301.864 139.909C299.742 141.424 297.955 143.561 296.5 146.318C295.076 149.045 294.076 152.273 293.5 156C292.894 159.727 292.848 162.924 293.364 165.591C293.909 168.258 295 170.303 296.636 171.727C298.303 173.152 300.5 173.864 303.227 173.864ZM349.352 191L360.989 121.182H383.216L371.58 191H349.352ZM373.67 113C370.519 113 367.958 111.955 365.989 109.864C364.019 107.773 363.246 105.273 363.67 102.364C364.095 99.4242 365.58 96.9242 368.125 94.8636C370.67 92.803 373.504 91.7727 376.625 91.7727C379.777 91.7727 382.307 92.803 384.216 94.8636C386.155 96.9242 386.913 99.4242 386.489 102.364C386.125 105.273 384.67 107.773 382.125 109.864C379.61 111.955 376.792 113 373.67 113ZM414.727 151.182L408.091 191H385.864L397.5 121.182H418.636L416.545 134H417.318C419.5 129.727 422.667 126.379 426.818 123.955C430.97 121.5 435.636 120.273 440.818 120.273C445.697 120.273 449.773 121.364 453.045 123.545C456.318 125.727 458.636 128.788 460 132.727C461.364 136.636 461.591 141.227 460.682 146.5L453.227 191H431L437.682 150.864C438.348 147.015 437.879 144 436.273 141.818C434.697 139.606 432.121 138.5 428.545 138.5C426.212 138.5 424.076 139.015 422.136 140.045C420.227 141.045 418.621 142.485 417.318 144.364C416.045 146.242 415.182 148.515 414.727 151.182Z" fill="white"/>
<path d="M115.102 191L108.197 189.854L106.844 198H115.102V191ZM130.557 97.9091V90.9091H124.623L123.651 96.7627L130.557 97.9091ZM153.057 97.9091L159.963 99.0504L161.308 90.9091H153.057V97.9091ZM140.693 172.727L133.787 171.586L132.442 179.727H140.693V172.727ZM179.42 172.727L186.322 173.895L187.704 165.727H179.42V172.727ZM176.33 191V198H182.245L183.232 192.167L176.33 191ZM122.008 192.146L137.462 99.0555L123.651 96.7627L108.197 189.854L122.008 192.146ZM130.557 104.909H153.057V90.9091H130.557V104.909ZM146.15 96.7678L133.787 171.586L147.6 173.869L159.963 99.0504L146.15 96.7678ZM140.693 179.727H179.42V165.727H140.693V179.727ZM172.519 171.56L169.428 189.833L183.232 192.167L186.322 173.895L172.519 171.56ZM176.33 184H115.102V198H176.33V184ZM202.295 187.773L198.535 193.677L198.543 193.682L198.552 193.688L202.295 187.773ZM192.25 175.091L185.659 177.448L185.659 177.448L192.25 175.091ZM191.114 156.182L184.207 155.041L184.207 155.045L191.114 156.182ZM198.432 137.364L204.206 141.321L204.206 141.321L198.432 137.364ZM212.614 124.773L215.848 130.981L215.848 130.981L212.614 124.773ZM250.341 124.818L246.58 130.722L246.589 130.728L246.597 130.733L250.341 124.818ZM260.432 137.5L253.84 139.857L253.846 139.873L253.852 139.889L260.432 137.5ZM261.614 156.455L268.52 157.596L268.522 157.587L261.614 156.455ZM254.25 175.273L259.998 179.267L260.004 179.26L260.009 179.252L254.25 175.273ZM240.068 187.818L243.316 194.019L243.316 194.019L240.068 187.818ZM230.341 173.091L226.141 167.491L226.122 167.505L226.103 167.519L230.341 173.091ZM235.841 166.227L242.089 169.384L242.089 169.384L235.841 166.227ZM239.023 156L232.118 154.849L232.117 154.858L232.115 154.867L239.023 156ZM239.205 145.955L232.3 147.105L232.307 147.147L232.314 147.188L239.205 145.955ZM236.114 139.182L231.071 144.037L231.094 144.061L231.117 144.084L236.114 139.182ZM222.341 139.227L226.541 144.827L226.566 144.809L226.59 144.79L222.341 139.227ZM216.841 146.091L210.593 142.935L210.586 142.948L210.58 142.96L216.841 146.091ZM213.705 156.318L220.609 157.469L220.611 157.456L220.614 157.443L213.705 156.318ZM213.477 166.364L220.38 165.201L220.38 165.201L213.477 166.364ZM216.614 173.136L211.618 178.04L211.641 178.063L211.664 178.086L216.614 173.136ZM220.523 185.318C214.094 185.318 209.417 183.996 206.039 181.858L198.552 193.688C204.749 197.61 212.224 199.318 220.523 199.318V185.318ZM206.056 181.869C202.64 179.693 200.269 176.728 198.841 172.734L185.659 177.448C188.109 184.302 192.436 189.792 198.535 193.677L206.056 181.869ZM198.841 172.734C197.394 168.686 196.982 163.631 198.021 157.318L184.207 155.045C182.882 163.096 183.227 170.647 185.659 177.448L198.841 172.734ZM198.02 157.323C199.053 151.071 201.148 145.783 204.206 141.321L192.658 133.406C188.322 139.733 185.538 146.989 184.207 155.041L198.02 157.323ZM204.206 141.321C207.259 136.867 211.117 133.446 215.848 130.981L209.379 118.565C202.596 122.099 196.999 127.072 192.658 133.406L204.206 141.321ZM215.848 130.981C220.488 128.563 225.885 127.273 232.205 127.273V113.273C223.918 113.273 216.254 114.982 209.379 118.565L215.848 130.981ZM232.205 127.273C238.599 127.273 243.238 128.593 246.58 130.722L254.101 118.914C247.929 114.983 240.477 113.273 232.205 113.273V127.273ZM246.597 130.733C250.042 132.913 252.417 135.876 253.84 139.857L267.023 135.143C264.567 128.275 260.216 122.784 254.084 118.903L246.597 130.733ZM253.852 139.889C255.318 143.925 255.744 148.984 254.706 155.323L268.522 157.587C269.846 149.501 269.485 141.923 267.011 135.111L253.852 139.889ZM254.707 155.313C253.676 161.554 251.572 166.835 248.491 171.293L260.009 179.252C264.383 172.922 267.188 165.658 268.52 157.596L254.707 155.313ZM248.502 171.278C245.411 175.726 241.538 179.146 236.82 181.617L243.316 194.019C250.053 190.49 255.634 185.547 259.998 179.267L248.502 171.278ZM236.82 181.617C232.219 184.028 226.843 185.318 220.523 185.318V199.318C228.809 199.318 236.463 197.609 243.316 194.019L236.82 181.617ZM223.023 182.545C227.266 182.545 231.197 181.234 234.578 178.663L226.103 167.519C225.182 168.22 224.234 168.545 223.023 168.545V182.545ZM234.541 178.691C237.745 176.288 240.218 173.087 242.089 169.384L229.593 163.071C228.494 165.246 227.301 166.621 226.141 167.491L234.541 178.691ZM242.089 169.384C243.951 165.698 245.2 161.584 245.93 157.133L232.115 154.867C231.573 158.174 230.701 160.878 229.593 163.071L242.089 169.384ZM245.927 157.151C246.655 152.783 246.789 148.597 246.095 144.721L232.314 147.188C232.651 149.07 232.663 151.58 232.118 154.849L245.927 157.151ZM246.109 144.804C245.461 140.914 243.963 137.187 241.11 134.279L231.117 144.084C231.416 144.389 231.978 145.177 232.3 147.105L246.109 144.804ZM241.156 134.326C238.016 131.065 233.919 129.727 229.705 129.727V143.727C230.347 143.727 230.686 143.824 230.826 143.878C230.942 143.922 231.001 143.964 231.071 144.037L241.156 134.326ZM229.705 129.727C225.43 129.727 221.485 131.072 218.092 133.665L226.59 144.79C227.56 144.049 228.524 143.727 229.705 143.727V129.727ZM218.141 133.627C214.937 136.03 212.464 139.231 210.593 142.935L223.089 149.247C224.188 147.072 225.381 145.697 226.541 144.827L218.141 133.627ZM210.58 142.96C208.749 146.622 207.522 150.733 206.795 155.193L220.614 157.443C221.16 154.085 222.023 151.378 223.102 149.221L210.58 142.96ZM206.8 155.167C206.075 159.517 205.926 163.678 206.574 167.526L220.38 165.201C220.058 163.292 220.062 160.756 220.609 157.469L206.8 155.167ZM206.574 167.526C207.232 171.431 208.765 175.133 211.618 178.04L221.609 168.233C221.25 167.867 220.692 167.053 220.38 165.201L206.574 167.526ZM211.664 178.086C214.81 181.232 218.848 182.545 223.023 182.545V168.545C221.864 168.545 221.629 168.253 221.563 168.187L211.664 178.086ZM278.773 215.864L276.074 222.323L276.074 222.323L278.773 215.864ZM268.864 208.273L263.073 212.206L268.864 208.273ZM265.727 197.364L265.339 190.374L258.874 190.734L258.729 197.207L265.727 197.364ZM287 196.182L293.946 195.314L293.136 188.83L286.612 189.193L287 196.182ZM288.591 199.955L283.201 204.421L283.201 204.421L288.591 199.955ZM292.364 202.364L294.687 195.76L294.632 195.741L294.577 195.723L292.364 202.364ZM308.182 200.5L304.329 194.656L304.329 194.656L308.182 200.5ZM313.273 191.091L306.368 189.94L306.355 190.02L306.343 190.101L313.273 191.091ZM315.318 178.818L322.223 179.969L323.581 171.818H315.318V178.818ZM314.545 178.818V171.818H310.455L308.447 175.382L314.545 178.818ZM309.636 184.591L305.186 179.187L305.186 179.187L309.636 184.591ZM279.545 186.5L275.827 192.431L275.844 192.441L275.861 192.452L279.545 186.5ZM271.273 175.409L264.64 177.647L264.644 177.659L271.273 175.409ZM270.682 156L263.778 154.845L263.776 154.854L263.775 154.862L270.682 156ZM277.955 135.864L283.794 139.723L283.799 139.716L283.804 139.708L277.955 135.864ZM290.136 124.091L286.784 117.946L286.776 117.95L286.768 117.955L290.136 124.091ZM313.545 122.182L310.259 128.363L310.29 128.379L310.321 128.395L313.545 122.182ZM322.091 133.136L315.335 134.97L316.738 140.136H322.091V133.136ZM322.727 133.136V140.136H328.676L329.636 134.266L322.727 133.136ZM324.682 121.182V114.182H318.733L317.774 120.052L324.682 121.182ZM346.818 121.182L353.724 122.328L355.076 114.182H346.818V121.182ZM335.182 191.273L328.276 190.126L328.272 190.153L328.268 190.179L335.182 191.273ZM328.318 206.273L323.104 201.603L328.318 206.273ZM314.364 215.5L311.94 208.933L311.94 208.933L314.364 215.5ZM319.182 156L326.091 157.123L326.093 157.115L326.094 157.106L319.182 156ZM319.182 146.227L312.33 147.658L312.339 147.702L312.349 147.746L319.182 146.227ZM315.818 139.864L311.162 145.09L311.162 145.09L315.818 139.864ZM301.864 139.909L297.833 134.186L297.814 134.199L297.795 134.213L301.864 139.909ZM296.5 146.318L290.309 143.052L290.302 143.065L290.295 143.078L296.5 146.318ZM293.5 156L300.409 157.123L300.414 157.096L300.418 157.069L293.5 156ZM293.364 165.591L286.491 166.919L286.498 166.956L286.506 166.994L293.364 165.591ZM296.636 171.727L292.041 177.007L292.065 177.028L292.089 177.049L296.636 171.727ZM295.409 211.636C289.332 211.636 284.777 210.786 281.471 209.405L276.074 222.323C281.617 224.639 288.153 225.636 295.409 225.636V211.636ZM281.471 209.405C278.006 207.957 275.91 206.189 274.654 204.34L263.073 212.206C266.181 216.781 270.691 220.074 276.074 222.323L281.471 209.405ZM274.654 204.34C273.33 202.39 272.666 200.196 272.726 197.52L258.729 197.207C258.607 202.652 260.034 207.732 263.073 212.206L274.654 204.34ZM266.116 204.353L287.388 203.171L286.612 189.193L265.339 190.374L266.116 204.353ZM280.054 197.05C280.39 199.739 281.416 202.267 283.201 204.421L293.981 195.488C293.975 195.481 293.976 195.481 293.979 195.486C293.98 195.489 293.982 195.491 293.983 195.493C293.984 195.495 293.984 195.496 293.984 195.496C293.984 195.496 293.979 195.485 293.972 195.458C293.965 195.431 293.955 195.384 293.946 195.314L280.054 197.05ZM283.201 204.421C285.102 206.715 287.584 208.149 290.15 209.004L294.577 195.723C294.223 195.605 294.035 195.5 293.961 195.453C293.893 195.409 293.92 195.415 293.981 195.488L283.201 204.421ZM290.04 208.967C292.655 209.887 295.529 210.227 298.455 210.227V196.227C296.531 196.227 295.345 195.992 294.687 195.76L290.04 208.967ZM298.455 210.227C303.37 210.227 307.991 209.01 312.035 206.344L304.329 194.656C302.857 195.626 300.994 196.227 298.455 196.227V210.227ZM312.035 206.344C317.009 203.064 319.39 197.768 320.202 192.081L306.343 190.101C305.883 193.323 304.87 194.299 304.329 194.656L312.035 206.344ZM320.177 192.242L322.223 179.969L308.413 177.667L306.368 189.94L320.177 192.242ZM315.318 171.818H314.545V185.818H315.318V171.818ZM308.447 175.382C307.691 176.723 306.635 177.994 305.186 179.187L314.086 189.994C316.759 187.793 318.975 185.216 320.644 182.254L308.447 175.382ZM305.186 179.187C303.842 180.294 302.16 181.243 300.041 181.972L304.596 195.21C308.113 194 311.309 192.281 314.086 189.994L305.186 179.187ZM300.041 181.972C298.055 182.655 295.717 183.045 292.955 183.045V197.045C297.04 197.045 300.945 196.466 304.596 195.21L300.041 181.972ZM292.955 183.045C288.948 183.045 285.792 182.134 283.23 180.548L275.861 192.452C280.935 195.593 286.719 197.045 292.955 197.045V183.045ZM283.264 180.569C281.037 179.173 279.174 176.908 277.901 173.159L264.644 177.659C266.766 183.91 270.418 189.039 275.827 192.431L283.264 180.569ZM277.905 173.172C276.715 169.641 276.385 164.445 277.589 157.138L263.775 154.862C262.373 163.373 262.437 171.116 264.64 177.647L277.905 173.172ZM277.586 157.155C278.835 149.686 280.988 143.969 283.794 139.723L272.115 132.004C267.951 138.304 265.256 146.011 263.778 154.845L277.586 157.155ZM283.804 139.708C286.786 135.17 290.052 132.123 293.505 130.227L286.768 117.955C280.948 121.15 276.092 125.951 272.105 132.019L283.804 139.708ZM293.488 130.236C297.221 128.2 300.85 127.273 304.455 127.273V113.273C298.302 113.273 292.385 114.891 286.784 117.946L293.488 130.236ZM304.455 127.273C307.361 127.273 309.171 127.784 310.259 128.363L316.831 116.001C313.132 114.034 308.881 113.273 304.455 113.273V127.273ZM310.321 128.395C311.831 129.179 312.79 130.065 313.426 130.984L324.937 123.016C322.846 119.995 320.047 117.67 316.77 115.969L310.321 128.395ZM313.426 130.984C314.378 132.358 314.986 133.684 315.335 134.97L328.846 131.303C328.044 128.347 326.713 125.581 324.937 123.016L313.426 130.984ZM322.091 140.136H322.727V126.136H322.091V140.136ZM329.636 134.266L331.59 122.311L317.774 120.052L315.819 132.007L329.636 134.266ZM324.682 128.182H346.818V114.182H324.682V128.182ZM339.913 120.035L328.276 190.126L342.087 192.419L353.724 122.328L339.913 120.035ZM328.268 190.179C327.516 194.93 325.749 198.648 323.104 201.603L333.533 210.943C338.16 205.776 340.969 199.494 342.096 192.366L328.268 190.179ZM323.104 201.603C320.309 204.724 316.654 207.194 311.94 208.933L316.787 222.067C323.407 219.624 329.055 215.943 333.533 210.943L323.104 201.603ZM311.94 208.933C307.159 210.697 301.677 211.636 295.409 211.636V225.636C303.08 225.636 310.235 224.485 316.787 222.067L311.94 208.933ZM303.227 180.864C307.233 180.864 311.011 179.783 314.372 177.589L306.719 165.866C305.717 166.52 304.616 166.864 303.227 166.864V180.864ZM314.372 177.589C317.656 175.445 320.219 172.485 322.161 168.996L309.93 162.186C308.903 164.03 307.799 165.161 306.719 165.866L314.372 177.589ZM322.161 168.996C324.122 165.475 325.385 161.469 326.091 157.123L312.273 154.877C311.767 157.986 310.939 160.373 309.93 162.186L322.161 168.996ZM326.094 157.106C326.791 152.75 326.87 148.554 326.015 144.709L312.349 147.746C312.706 149.355 312.785 151.675 312.27 154.894L326.094 157.106ZM326.034 144.797C325.233 140.96 323.525 137.354 320.475 134.637L311.162 145.09C311.445 145.342 311.979 145.98 312.33 147.658L326.034 144.797ZM320.475 134.637C317.257 131.77 313.273 130.636 309.227 130.636V144.636C310.636 144.636 311.046 144.987 311.162 145.09L320.475 134.637ZM309.227 130.636C305.1 130.636 301.223 131.799 297.833 134.186L305.894 145.632C306.807 144.989 307.839 144.636 309.227 144.636V130.636ZM297.795 134.213C294.629 136.474 292.173 139.518 290.309 143.052L302.691 149.584C303.736 147.603 304.856 146.374 305.932 145.605L297.795 134.213ZM290.295 143.078C288.446 146.619 287.249 150.611 286.582 154.931L300.418 157.069C300.902 153.935 301.705 151.472 302.705 149.558L290.295 143.078ZM286.591 154.877C285.9 159.123 285.771 163.195 286.491 166.919L300.237 164.263C299.926 162.653 299.888 160.332 300.409 157.123L286.591 154.877ZM286.506 166.994C287.279 170.776 288.977 174.341 292.041 177.007L301.232 166.447C301.023 166.265 300.539 165.739 300.222 164.188L286.506 166.994ZM292.089 177.049C295.31 179.801 299.253 180.864 303.227 180.864V166.864C301.747 166.864 301.296 166.502 301.184 166.406L292.089 177.049ZM349.352 191L342.448 189.849L341.089 198H349.352V191ZM360.989 121.182V114.182H355.059L354.084 120.031L360.989 121.182ZM383.216 121.182L390.121 122.333L391.479 114.182H383.216V121.182ZM371.58 191V198H377.509L378.484 192.151L371.58 191ZM365.989 109.864L371.084 105.064L371.084 105.064L365.989 109.864ZM363.67 102.364L370.597 103.374L370.599 103.364L363.67 102.364ZM368.125 94.8636L363.721 89.4229L363.721 89.4229L368.125 94.8636ZM384.216 94.8636L379.081 99.621L379.1 99.6412L379.119 99.6612L384.216 94.8636ZM386.489 102.364L379.56 101.364L379.551 101.429L379.543 101.495L386.489 102.364ZM382.125 109.864L377.682 104.455L377.666 104.468L377.65 104.481L382.125 109.864ZM356.257 192.151L367.893 122.333L354.084 120.031L342.448 189.849L356.257 192.151ZM360.989 128.182H383.216V114.182H360.989V128.182ZM376.311 120.031L364.675 189.849L378.484 192.151L390.121 122.333L376.311 120.031ZM371.58 184H349.352V198H371.58V184ZM373.67 106C372.24 106 371.595 105.606 371.084 105.064L360.893 114.663C364.322 118.303 368.798 120 373.67 120V106ZM371.084 105.064C370.619 104.57 370.473 104.226 370.597 103.374L356.744 101.353C356.02 106.32 357.419 110.975 360.893 114.663L371.084 105.064ZM370.599 103.364C370.744 102.355 371.202 101.379 372.529 100.304L363.721 89.4229C359.957 92.4694 357.445 96.4937 356.742 101.364L370.599 103.364ZM372.529 100.304C373.895 99.1989 375.19 98.7727 376.625 98.7727V84.7727C371.817 84.7727 367.446 86.4071 363.721 89.4229L372.529 100.304ZM376.625 98.7727C378.09 98.7727 378.665 99.1723 379.081 99.621L389.351 90.1063C385.948 86.4338 381.463 84.7727 376.625 84.7727V98.7727ZM379.119 99.6612C379.515 100.082 379.698 100.414 379.56 101.364L393.417 103.364C394.128 98.4346 392.796 93.7663 389.313 90.0661L379.119 99.6612ZM379.543 101.495C379.429 102.402 379.028 103.349 377.682 104.455L386.568 115.273C390.313 112.197 392.821 108.144 393.435 103.232L379.543 101.495ZM377.65 104.481C376.327 105.581 375.074 106 373.67 106V120C378.509 120 382.893 118.328 386.6 115.246L377.65 104.481ZM414.727 151.182L407.827 150.006L407.825 150.018L407.823 150.031L414.727 151.182ZM408.091 191V198H414.021L414.996 192.151L408.091 191ZM385.864 191L378.959 189.849L377.6 198H385.864V191ZM397.5 121.182V114.182H391.57L390.595 120.031L397.5 121.182ZM418.636 121.182L425.545 122.309L426.871 114.182H418.636V121.182ZM416.545 134L409.637 132.873L408.311 141H416.545V134ZM417.318 134V141H421.604L423.552 137.183L417.318 134ZM426.818 123.955L430.348 129.999L430.364 129.99L430.381 129.98L426.818 123.955ZM453.045 123.545L449.163 129.37L449.163 129.37L453.045 123.545ZM460 132.727L453.385 135.017L453.388 135.025L453.391 135.033L460 132.727ZM460.682 146.5L453.784 145.311L453.781 145.327L453.778 145.343L460.682 146.5ZM453.227 191V198H459.152L460.131 192.157L453.227 191ZM431 191L424.095 189.85L422.738 198H431V191ZM437.682 150.864L430.785 149.669L430.781 149.691L430.777 149.714L437.682 150.864ZM436.273 141.818L430.571 145.879L430.603 145.924L430.635 145.968L436.273 141.818ZM422.136 140.045L425.384 146.246L425.402 146.237L425.42 146.227L422.136 140.045ZM417.318 144.364L411.566 140.374L411.544 140.406L411.523 140.438L417.318 144.364ZM407.823 150.031L401.186 189.849L414.996 192.151L421.632 152.333L407.823 150.031ZM408.091 184H385.864V198H408.091V184ZM392.768 192.151L404.405 122.333L390.595 120.031L378.959 189.849L392.768 192.151ZM397.5 128.182H418.636V114.182H397.5V128.182ZM411.728 120.055L409.637 132.873L423.454 135.127L425.545 122.309L411.728 120.055ZM416.545 141H417.318V127H416.545V141ZM423.552 137.183C425.124 134.106 427.351 131.75 430.348 129.999L423.288 117.91C417.983 121.008 413.876 125.348 411.084 130.817L423.552 137.183ZM430.381 129.98C433.373 128.211 436.793 127.273 440.818 127.273V113.273C434.48 113.273 428.566 114.789 423.256 117.929L430.381 129.98ZM440.818 127.273C444.649 127.273 447.289 128.121 449.163 129.37L456.928 117.721C452.256 114.606 446.745 113.273 440.818 113.273V127.273ZM449.163 129.37C451.084 130.651 452.49 132.43 453.385 135.017L466.615 130.437C464.783 125.146 461.552 120.804 456.928 117.721L449.163 129.37ZM453.391 135.033C454.265 137.539 454.548 140.875 453.784 145.311L467.58 147.689C468.633 141.579 468.462 135.733 466.609 130.422L453.391 135.033ZM453.778 145.343L446.323 189.843L460.131 192.157L467.586 147.657L453.778 145.343ZM453.227 184H431V198H453.227V184ZM437.905 192.15L444.587 152.013L430.777 149.714L424.095 189.85L437.905 192.15ZM444.579 152.058C445.426 147.169 445.067 141.957 441.91 137.668L430.635 145.968C430.69 146.043 431.271 146.861 430.785 149.669L444.579 152.058ZM441.974 137.757C438.686 133.141 433.597 131.5 428.545 131.5V145.5C429.635 145.5 430.187 145.671 430.397 145.762C430.546 145.826 430.552 145.853 430.571 145.879L441.974 137.757ZM428.545 131.5C425.141 131.5 421.866 132.263 418.852 133.864L425.42 146.227C426.285 145.768 427.284 145.5 428.545 145.5V131.5ZM418.888 133.845C415.917 135.401 413.473 137.625 411.566 140.374L423.07 148.353C423.77 147.344 424.537 146.69 425.384 146.246L418.888 133.845ZM411.523 140.438C409.592 143.287 408.417 146.54 407.827 150.006L421.628 152.358C421.946 150.49 422.498 149.198 423.114 148.29L411.523 140.438Z" fill="black"/>
</svg>
