<svg width="348" height="128" viewBox="0 0 348 128" fill="none" xmlns="http://www.w3.org/2000/svg">
<path d="M0.352273 100L15.8068 6.90909H38.3068L25.9432 81.7273H64.6705L61.5795 100H0.352273ZM105.773 101.318C98.4091 101.318 92.3333 99.803 87.5455 96.7727C82.7879 93.7424 79.4394 89.5152 77.5 84.0909C75.5606 78.6667 75.1818 72.3636 76.3636 65.1818C77.5455 58.0303 79.9848 51.7576 83.6818 46.3636C87.3788 40.9697 92.1061 36.7727 97.8636 33.7727C103.621 30.7727 110.152 29.2727 117.455 29.2727C124.788 29.2727 130.833 30.7879 135.591 33.8182C140.379 36.8485 143.742 41.0758 145.682 46.5C147.652 51.9242 148.045 58.2424 146.864 65.4545C145.682 72.6061 143.227 78.8788 139.5 84.2727C135.773 89.6364 131.045 93.8182 125.318 96.8182C119.591 99.8182 113.076 101.318 105.773 101.318ZM108.273 84.5455C111 84.5455 113.439 83.7273 115.591 82.0909C117.773 80.4545 119.606 78.1667 121.091 75.2273C122.576 72.2879 123.636 68.8788 124.273 65C124.909 61.1818 124.97 57.8333 124.455 54.9545C123.97 52.0455 122.939 49.7879 121.364 48.1818C119.788 46.5455 117.652 45.7273 114.955 45.7273C112.227 45.7273 109.773 46.5606 107.591 48.2273C105.409 49.8636 103.576 52.1515 102.091 55.0909C100.636 58 99.5909 61.4091 98.9545 65.3182C98.3182 69.1364 98.2424 72.4848 98.7273 75.3636C99.2121 78.2424 100.258 80.5 101.864 82.1364C103.47 83.7424 105.606 84.5455 108.273 84.5455ZM180.659 127.636C173.992 127.636 168.447 126.712 164.023 124.864C159.598 123.015 156.295 120.485 154.114 117.273C151.932 114.061 150.886 110.424 150.977 106.364L172.25 105.182C172.432 106.636 172.962 107.894 173.841 108.955C174.72 110.015 175.977 110.818 177.614 111.364C179.25 111.939 181.28 112.227 183.705 112.227C187.432 112.227 190.674 111.318 193.432 109.5C196.189 107.682 197.886 104.545 198.523 100.091L200.568 87.8182H199.795C198.583 89.9697 196.947 91.8939 194.886 93.5909C192.826 95.2879 190.386 96.6212 187.568 97.5909C184.75 98.5606 181.629 99.0455 178.205 99.0455C173.083 99.0455 168.614 97.8636 164.795 95.5C160.977 93.1061 158.22 89.4091 156.523 84.4091C154.826 79.3788 154.629 72.9091 155.932 65C157.295 56.8485 159.72 50.1364 163.205 44.8636C166.689 39.5606 170.75 35.6364 175.386 33.0909C180.053 30.5455 184.826 29.2727 189.705 29.2727C193.371 29.2727 196.402 29.9091 198.795 31.1818C201.189 32.4242 203.068 34.0303 204.432 36C205.795 37.9697 206.765 40.0151 207.341 42.1364H207.977L209.932 30.1818H232.068L220.432 100.273C219.492 106.212 217.205 111.212 213.568 115.273C209.932 119.333 205.28 122.409 199.614 124.5C193.947 126.591 187.629 127.636 180.659 127.636ZM188.477 82.8636C191.174 82.8636 193.614 82.1515 195.795 80.7273C197.977 79.303 199.811 77.2576 201.295 74.5909C202.78 71.9242 203.826 68.7273 204.432 65C205.038 61.2121 205.038 57.9545 204.432 55.2273C203.856 52.4697 202.735 50.3485 201.068 48.8636C199.402 47.3788 197.205 46.6364 194.477 46.6364C191.72 46.6364 189.265 47.3939 187.114 48.9091C184.992 50.4242 183.205 52.5606 181.75 55.3182C180.326 58.0455 179.326 61.2727 178.75 65C178.144 68.7273 178.098 71.9242 178.614 74.5909C179.159 77.2576 180.25 79.303 181.886 80.7273C183.553 82.1515 185.75 82.8636 188.477 82.8636ZM234.602 100L246.239 30.1818H268.466L256.83 100H234.602ZM258.92 22C255.769 22 253.208 20.9545 251.239 18.8636C249.269 16.7727 248.496 14.2727 248.92 11.3636C249.345 8.42424 250.83 5.92424 253.375 3.86363C255.92 1.80303 258.754 0.772728 261.875 0.772728C265.027 0.772728 267.557 1.80303 269.466 3.86363C271.405 5.92424 272.163 8.42424 271.739 11.3636C271.375 14.2727 269.92 16.7727 267.375 18.8636C264.86 20.9545 262.042 22 258.92 22ZM299.977 60.1818L293.341 100H271.114L282.75 30.1818H303.886L301.795 43H302.568C304.75 38.7273 307.917 35.3788 312.068 32.9545C316.22 30.5 320.886 29.2727 326.068 29.2727C330.947 29.2727 335.023 30.3636 338.295 32.5455C341.568 34.7273 343.886 37.7879 345.25 41.7273C346.614 45.6364 346.841 50.2273 345.932 55.5L338.477 100H316.25L322.932 59.8636C323.598 56.0152 323.129 53 321.523 50.8182C319.947 48.6061 317.371 47.5 313.795 47.5C311.462 47.5 309.326 48.0152 307.386 49.0455C305.477 50.0455 303.871 51.4848 302.568 53.3636C301.295 55.2424 300.432 57.5151 299.977 60.1818Z" fill="white"/>
<path d="M0.352273 100L-7.53971 98.6898L-9.08535 108H0.352273V100ZM15.8068 6.90909V-1.09091H9.02545L7.91484 5.5989L15.8068 6.90909ZM38.3068 6.90909L46.1998 8.21339L47.7373 -1.09091H38.3068V6.90909ZM25.9432 81.7273L18.0502 80.423L16.5127 89.7273H25.9432V81.7273ZM64.6705 81.7273L72.5584 83.0616L74.1373 73.7273H64.6705V81.7273ZM61.5795 100V108H68.34L69.4675 101.334L61.5795 100ZM8.24426 101.31L23.6988 8.21928L7.91484 5.5989L-7.53971 98.6898L8.24426 101.31ZM15.8068 14.9091H38.3068V-1.09091H15.8068V14.9091ZM30.4139 5.60478L18.0502 80.423L33.8361 83.0316L46.1998 8.21339L30.4139 5.60478ZM25.9432 89.7273H64.6705V73.7273H25.9432V89.7273ZM56.7825 80.393L53.6916 98.6657L69.4675 101.334L72.5584 83.0616L56.7825 80.393ZM61.5795 92H0.352273V108H61.5795V92ZM87.5455 96.7727L83.2477 103.52L83.2574 103.526L83.2671 103.533L87.5455 96.7727ZM77.5 84.0909L69.967 86.7843L69.967 86.7843L77.5 84.0909ZM76.3636 65.1818L68.4707 63.8775L68.4698 63.8828L76.3636 65.1818ZM83.6818 46.3636L90.2806 50.8864L90.2806 50.8864L83.6818 46.3636ZM97.8636 33.7727L101.56 40.8674L101.56 40.8674L97.8636 33.7727ZM135.591 33.8182L131.293 40.5657L131.303 40.5719L131.313 40.578L135.591 33.8182ZM145.682 46.5L138.149 49.1934L138.156 49.212L138.162 49.2306L145.682 46.5ZM146.864 65.4545L154.757 66.7589L154.758 66.7482L146.864 65.4545ZM139.5 84.2727L146.07 88.838L146.076 88.8293L146.082 88.8206L139.5 84.2727ZM125.318 96.8182L129.03 103.905L129.03 103.905L125.318 96.8182ZM115.591 82.0909L110.791 75.6909L110.769 75.7071L110.748 75.7233L115.591 82.0909ZM121.091 75.2273L128.232 78.8344L128.232 78.8344L121.091 75.2273ZM124.273 65L116.382 63.6848L116.38 63.6948L116.378 63.7048L124.273 65ZM124.455 54.9545L116.563 56.2697L116.571 56.3168L116.58 56.3637L124.455 54.9545ZM121.364 48.1818L115.601 53.731L115.627 53.7579L115.653 53.7845L121.364 48.1818ZM107.591 48.2273L112.391 54.6273L112.419 54.6061L112.447 54.5846L107.591 48.2273ZM102.091 55.0909L94.9503 51.4838L94.9429 51.4985L94.9355 51.5132L102.091 55.0909ZM98.9545 65.3182L106.846 66.6334L106.848 66.6185L106.851 66.6036L98.9545 65.3182ZM98.7273 75.3636L106.616 74.035L106.616 74.035L98.7273 75.3636ZM101.864 82.1364L96.1542 87.7401L96.1804 87.7668L96.2068 87.7932L101.864 82.1364ZM105.773 93.3182C99.4775 93.3182 95.0007 92.0236 91.8238 90.0129L83.2671 103.533C89.6659 107.582 97.3407 109.318 105.773 109.318V93.3182ZM91.8432 90.0252C88.6185 87.9712 86.3879 85.1871 85.033 81.3976L69.967 86.7843C72.4909 93.8432 76.9573 99.5136 83.2477 103.52L91.8432 90.0252ZM85.033 81.3976C83.6559 77.5461 83.2391 72.6692 84.2575 66.4808L68.4698 63.8828C67.1245 72.0581 67.4653 79.7872 69.967 86.7843L85.033 81.3976ZM84.2566 66.4862C85.2685 60.3629 87.314 55.2148 90.2806 50.8864L77.083 41.8408C72.6557 48.3003 69.8224 55.6977 68.4707 63.8775L84.2566 66.4862ZM90.2806 50.8864C93.2414 46.5666 96.9752 43.2565 101.56 40.8674L94.1669 26.6781C87.2369 30.2889 81.5162 35.3728 77.083 41.8409L90.2806 50.8864ZM101.56 40.8674C106.04 38.533 111.276 37.2727 117.455 37.2727V21.2727C109.027 21.2727 101.202 23.0124 94.1669 26.6781L101.56 40.8674ZM117.455 37.2727C123.715 37.2727 128.153 38.5654 131.293 40.5657L139.889 27.0707C133.514 23.0104 125.861 21.2727 117.455 21.2727V37.2727ZM131.313 40.578C134.565 42.6368 136.799 45.4194 138.149 49.1934L153.215 43.8066C150.685 36.7321 146.192 31.0602 139.869 27.0583L131.313 40.578ZM138.162 49.2306C139.556 53.0684 139.987 57.9468 138.969 64.1609L154.758 66.7482C156.104 58.538 155.747 50.7801 153.201 43.7694L138.162 49.2306ZM138.971 64.1502C137.961 70.2612 135.907 75.4005 132.918 79.7248L146.082 88.8206C150.548 82.357 153.403 74.9509 154.757 66.7589L138.971 64.1502ZM132.93 79.7075C129.931 84.024 126.18 87.3359 121.606 89.7315L129.03 103.905C135.911 100.3 141.615 95.2487 146.07 88.838L132.93 79.7075ZM121.606 89.7315C117.165 92.0576 111.952 93.3182 105.773 93.3182V109.318C114.199 109.318 122.016 107.579 129.03 103.905L121.606 89.7315ZM108.273 92.5455C112.732 92.5455 116.877 91.1641 120.434 88.4585L110.748 75.7233C110.002 76.2905 109.268 76.5455 108.273 76.5455V92.5455ZM120.391 88.4909C123.741 85.9784 126.305 82.6474 128.232 78.8344L113.95 71.6201C112.907 73.6859 111.804 74.9307 110.791 75.6909L120.391 88.4909ZM128.232 78.8344C130.147 75.0423 131.424 70.8276 132.167 66.2952L116.378 63.7048C115.849 66.9299 115.004 69.5334 113.95 71.6201L128.232 78.8344ZM132.164 66.3152C132.905 61.8694 133.048 57.5632 132.329 53.5453L116.58 56.3637C116.891 58.1035 116.913 60.4942 116.382 63.6848L132.164 66.3152ZM132.346 53.6394C131.674 49.6099 130.109 45.6722 127.074 42.5791L115.653 53.7845C115.77 53.9036 116.265 54.481 116.563 56.2697L132.346 53.6394ZM127.126 42.6327C123.762 39.1396 119.386 37.7273 114.955 37.7273V53.7273C115.496 53.7273 115.711 53.809 115.718 53.8118C115.723 53.8136 115.7 53.8048 115.664 53.7811C115.628 53.7572 115.606 53.7361 115.601 53.731L127.126 42.6327ZM114.955 37.7273C110.459 37.7273 106.301 39.1455 102.735 41.8699L112.447 54.5846C113.244 53.9757 113.995 53.7273 114.955 53.7273V37.7273ZM102.791 41.8273C99.4409 44.3398 96.8764 47.6708 94.9503 51.4838L109.232 58.698C110.275 56.6323 111.377 55.3875 112.391 54.6273L102.791 41.8273ZM94.9355 51.5132C93.0512 55.2818 91.7974 59.4936 91.0585 64.0328L106.851 66.6036C107.384 63.3246 108.222 60.7182 109.246 58.6686L94.9355 51.5132ZM91.0634 64.003C90.3258 68.4285 90.1669 72.7057 90.8384 76.6923L106.616 74.035C106.318 72.264 106.311 69.8442 106.846 66.6334L91.0634 64.003ZM90.8384 76.6923C91.5208 80.7442 93.1233 84.6521 96.1542 87.7401L107.573 76.5326C107.392 76.3479 106.903 75.7407 106.616 74.035L90.8384 76.6923ZM96.2068 87.7932C99.5729 91.1593 103.882 92.5455 108.273 92.5455V76.5455C107.742 76.5455 107.516 76.4662 107.485 76.4547C107.468 76.4483 107.477 76.4501 107.498 76.4636C107.519 76.4771 107.527 76.4865 107.52 76.4795L96.2068 87.7932ZM164.023 124.864L160.939 132.245L160.939 132.245L164.023 124.864ZM154.114 117.273L147.496 121.768L154.114 117.273ZM150.977 106.364L150.534 98.376L143.145 98.7864L142.979 106.185L150.977 106.364ZM172.25 105.182L180.188 104.19L179.262 96.7799L171.806 97.1941L172.25 105.182ZM173.841 108.955L167.681 114.059L167.681 114.059L173.841 108.955ZM177.614 111.364L180.269 103.817L180.206 103.795L180.143 103.774L177.614 111.364ZM193.432 109.5L189.028 102.821L189.028 102.821L193.432 109.5ZM198.523 100.091L190.632 98.7757L190.616 98.8675L190.603 98.9595L198.523 100.091ZM200.568 87.8182L208.459 89.1334L210.012 79.8182H200.568V87.8182ZM199.795 87.8182V79.8182H195.12L192.825 83.8914L199.795 87.8182ZM194.886 93.5909L189.801 87.4155L189.801 87.4155L194.886 93.5909ZM164.795 95.5L160.546 102.278L160.565 102.29L160.585 102.302L164.795 95.5ZM156.523 84.4091L148.942 86.9663L148.945 86.9732L148.947 86.9802L156.523 84.4091ZM155.932 65L148.041 63.6801L148.04 63.6898L148.038 63.6995L155.932 65ZM163.205 44.8636L169.879 49.2746L169.884 49.2659L169.89 49.2571L163.205 44.8636ZM175.386 33.0909L171.556 26.0677L171.546 26.073L171.536 26.0783L175.386 33.0909ZM198.795 31.1818L195.04 38.2456L195.075 38.2642L195.11 38.2825L198.795 31.1818ZM207.341 42.1364L199.62 44.232L201.223 50.1364H207.341V42.1364ZM207.977 42.1364V50.1364H214.776L215.872 43.4272L207.977 42.1364ZM209.932 30.1818V22.1818H203.134L202.037 28.891L209.932 30.1818ZM232.068 30.1818L239.96 31.492L241.506 22.1818H232.068V30.1818ZM220.432 100.273L212.54 98.9625L212.535 98.9927L212.53 99.023L220.432 100.273ZM213.568 115.273L207.609 109.936L213.568 115.273ZM199.614 124.5L196.844 116.995L196.844 116.995L199.614 124.5ZM204.432 65L212.328 66.284L212.33 66.2739L212.331 66.2639L204.432 65ZM204.432 55.2273L196.601 56.8623L196.611 56.9126L196.622 56.9627L204.432 55.2273ZM201.068 48.8636L195.747 54.8369L195.747 54.8369L201.068 48.8636ZM187.114 48.9091L182.507 42.3682L182.486 42.3837L182.464 42.3992L187.114 48.9091ZM181.75 55.3182L174.674 51.5858L174.666 51.6004L174.659 51.615L181.75 55.3182ZM178.75 65L186.646 66.2839L186.651 66.2526L186.656 66.2213L178.75 65ZM178.614 74.5909L170.759 76.1083L170.767 76.1512L170.776 76.1941L178.614 74.5909ZM181.886 80.7273L176.634 86.7617L176.662 86.7855L176.689 86.8091L181.886 80.7273ZM180.659 119.636C174.666 119.636 170.252 118.796 167.107 117.482L160.939 132.245C166.642 134.628 173.319 135.636 180.659 135.636V119.636ZM167.107 117.482C163.778 116.091 161.855 114.432 160.731 112.778L147.496 121.768C150.736 126.537 155.419 129.939 160.939 132.245L167.107 117.482ZM160.731 112.778C159.529 111.008 158.92 109.021 158.975 106.543L142.979 106.185C142.853 111.827 144.334 117.113 147.496 121.768L160.731 112.778ZM151.421 114.351L172.694 113.17L171.806 97.1941L150.534 98.376L151.421 114.351ZM164.312 106.174C164.67 109.039 165.766 111.748 167.681 114.059L180.001 103.85C180.056 103.917 180.114 104.009 180.156 104.107C180.196 104.203 180.195 104.242 180.188 104.19L164.312 106.174ZM167.681 114.059C169.728 116.529 172.385 118.053 175.084 118.953L180.143 103.774C179.855 103.678 179.744 103.607 179.749 103.61C179.752 103.612 179.782 103.631 179.83 103.673C179.878 103.715 179.938 103.774 180.001 103.85L167.681 114.059ZM174.958 118.91C177.713 119.879 180.708 120.227 183.705 120.227V104.227C181.853 104.227 180.787 103.999 180.269 103.817L174.958 118.91ZM183.705 120.227C188.79 120.227 193.608 118.966 197.835 116.179L189.028 102.821C187.741 103.67 186.074 104.227 183.705 104.227V120.227ZM197.835 116.179C203.126 112.691 205.605 107.085 206.442 101.222L190.603 98.9595C190.168 102.006 189.253 102.673 189.028 102.821L197.835 116.179ZM206.414 101.406L208.459 89.1334L192.677 86.503L190.632 98.7757L206.414 101.406ZM200.568 79.8182H199.795V95.8182H200.568V79.8182ZM192.825 83.8914C192.135 85.1164 191.162 86.2945 189.801 87.4155L199.972 99.7664C202.732 97.4934 205.031 94.823 206.765 91.7449L192.825 83.8914ZM189.801 87.4155C188.559 88.4381 186.984 89.3315 184.965 90.0262L190.171 105.156C193.788 103.911 197.093 102.138 199.972 99.7664L189.801 87.4155ZM184.965 90.0262C183.099 90.6683 180.873 91.0455 178.205 91.0455V107.045C182.385 107.045 186.401 106.453 190.171 105.156L184.965 90.0262ZM178.205 91.0455C174.357 91.0455 171.389 90.1731 169.006 88.6979L160.585 102.302C165.838 105.554 171.809 107.045 178.205 107.045V91.0455ZM169.045 88.7221C167.046 87.4683 165.31 85.4081 164.098 81.838L148.947 86.9802C151.129 93.4101 154.909 98.7438 160.546 102.278L169.045 88.7221ZM164.103 81.8519C162.984 78.5358 162.636 73.5218 163.825 66.3005L148.038 63.6995C146.622 72.2964 146.667 80.2217 148.942 86.9663L164.103 81.8519ZM163.822 66.3199C165.055 58.9481 167.17 53.3733 169.879 49.2746L156.53 40.4526C152.27 46.8994 149.536 54.7489 148.041 63.6801L163.822 66.3199ZM169.89 49.2571C172.8 44.8288 175.952 41.9065 179.236 40.1035L171.536 26.0783C165.548 29.3662 160.579 34.2924 156.519 40.4702L169.89 49.2571ZM179.217 40.1141C182.817 38.1507 186.282 37.2727 189.705 37.2727V21.2727C183.369 21.2727 177.289 22.9402 171.556 26.0677L179.217 40.1141ZM189.705 37.2727C192.503 37.2727 194.138 37.7658 195.04 38.2456L202.551 24.118C198.665 22.0524 194.24 21.2727 189.705 21.2727V37.2727ZM195.11 38.2825C196.494 39.0009 197.322 39.7848 197.854 40.5537L211.009 31.4463C208.814 28.2758 205.884 25.8476 202.481 24.0811L195.11 38.2825ZM197.854 40.5537C198.746 41.8423 199.303 43.0648 199.62 44.232L215.062 40.0408C214.227 36.9655 212.845 34.0971 211.009 31.4463L197.854 40.5537ZM207.341 50.1364H207.977V34.1364H207.341V50.1364ZM215.872 43.4272L217.827 31.4727L202.037 28.891L200.082 40.8455L215.872 43.4272ZM209.932 38.1818H232.068V22.1818H209.932V38.1818ZM224.176 28.8716L212.54 98.9625L228.324 101.583L239.96 31.492L224.176 28.8716ZM212.53 99.023C211.805 103.604 210.113 107.139 207.609 109.936L219.528 120.61C224.296 115.285 227.179 108.82 228.334 101.523L212.53 99.023ZM207.609 109.936C204.934 112.923 201.421 115.306 196.844 116.995L202.383 132.005C209.139 129.512 214.93 125.744 219.528 120.61L207.609 109.936ZM196.844 116.995C192.189 118.712 186.827 119.636 180.659 119.636V135.636C188.431 135.636 195.705 134.47 202.383 132.005L196.844 116.995ZM188.477 90.8636C192.67 90.8636 196.639 89.7304 200.168 87.4263L191.422 74.0282C190.589 74.5726 189.679 74.8636 188.477 74.8636V90.8636ZM200.168 87.4263C203.61 85.18 206.277 82.089 208.285 78.4828L194.306 70.699C193.344 72.4261 192.345 73.4261 191.422 74.0282L200.168 87.4263ZM208.285 78.4828C210.314 74.8395 211.607 70.7175 212.328 66.284L196.536 63.716C196.044 66.7371 195.247 69.009 194.306 70.699L208.285 78.4828ZM212.331 66.2639C213.041 61.8265 213.131 57.4973 212.241 53.4918L196.622 56.9627C196.944 58.4118 197.034 60.5977 196.532 63.7361L212.331 66.2639ZM212.263 53.5922C211.43 49.6012 209.638 45.7839 206.39 42.8904L195.747 54.8369C195.832 54.9131 196.282 55.3382 196.601 56.8623L212.263 53.5922ZM206.39 42.8904C202.95 39.826 198.712 38.6364 194.477 38.6364V54.6364C195.12 54.6364 195.467 54.7239 195.609 54.7721C195.68 54.7961 195.714 54.8146 195.723 54.82C195.732 54.8251 195.738 54.829 195.747 54.8369L206.39 42.8904ZM194.477 38.6364C190.154 38.6364 186.074 39.8564 182.507 42.3682L191.72 55.4499C192.456 54.9315 193.285 54.6364 194.477 54.6364V38.6364ZM182.464 42.3992C179.148 44.7673 176.597 47.9402 174.674 51.5858L188.826 59.0506C189.812 57.181 190.836 56.0812 191.764 55.419L182.464 42.3992ZM174.659 51.615C172.749 55.272 171.524 59.3735 170.844 63.7787L186.656 66.2213C187.127 63.1719 187.903 60.8189 188.841 59.0214L174.659 51.615ZM170.854 63.7161C170.151 68.0365 170.01 72.2339 170.759 76.1083L186.468 73.0735C186.187 71.6145 186.137 69.4181 186.646 66.2839L170.854 63.7161ZM170.776 76.1941C171.582 80.1362 173.367 83.9177 176.634 86.7617L187.139 74.6928C187.133 74.6883 186.736 74.3789 186.451 72.9877L170.776 76.1941ZM176.689 86.8091C180.132 89.7514 184.325 90.8636 188.477 90.8636V74.8636C187.804 74.8636 187.424 74.7753 187.251 74.7193C187.166 74.6918 187.122 74.6693 187.107 74.6609C187.093 74.653 187.087 74.6488 187.084 74.6454L176.689 86.8091ZM234.602 100L226.711 98.6848L225.159 108H234.602V100ZM246.239 30.1818V22.1818H239.462L238.347 28.8666L246.239 30.1818ZM268.466 30.1818L276.357 31.497L277.91 22.1818H268.466V30.1818ZM256.83 100V108H263.607L264.721 101.315L256.83 100ZM251.239 18.8636L257.062 13.3781L257.062 13.3781L251.239 18.8636ZM248.92 11.3636L256.837 12.5181L256.838 12.5064L248.92 11.3636ZM253.375 3.86363L248.341 -2.35433L248.341 -2.35432L253.375 3.86363ZM269.466 3.86363L263.597 9.30063L263.619 9.32367L263.64 9.34654L269.466 3.86363ZM271.739 11.3636L263.821 10.2208L263.81 10.296L263.8 10.3714L271.739 11.3636ZM267.375 18.8636L262.297 12.6818L262.279 12.6968L262.261 12.7118L267.375 18.8636ZM242.493 101.315L254.13 31.497L238.347 28.8666L226.711 98.6848L242.493 101.315ZM246.239 38.1818H268.466V22.1818H246.239V38.1818ZM260.575 28.8666L248.938 98.6848L264.721 101.315L276.357 31.497L260.575 28.8666ZM256.83 92H234.602V108H256.83V92ZM258.92 14C257.736 14 257.364 13.6991 257.062 13.3781L245.416 24.3492C249.052 28.2099 253.802 30 258.92 30V14ZM257.062 13.3781C256.937 13.2461 256.878 13.1572 256.854 13.1161C256.831 13.0774 256.826 13.0609 256.825 13.058C256.824 13.0546 256.815 13.0257 256.81 12.9544C256.805 12.8801 256.804 12.7392 256.837 12.5181L241.004 10.2092C240.237 15.4691 241.726 20.4325 245.416 24.3492L257.062 13.3781ZM256.838 12.5064C256.944 11.7734 257.255 11.0155 258.409 10.0816L248.341 -2.35432C244.404 0.832952 241.745 5.07505 241.002 10.2208L256.838 12.5064ZM258.409 10.0816C259.606 9.11264 260.681 8.77273 261.875 8.77273V-7.22727C256.826 -7.22727 252.235 -5.50658 248.341 -2.35433L258.409 10.0816ZM261.875 8.77273C263.099 8.77273 263.395 9.0822 263.597 9.30063L275.334 -1.57336C271.719 -5.47615 266.954 -7.22727 261.875 -7.22727V8.77273ZM263.64 9.34654C263.748 9.46104 263.796 9.53469 263.813 9.56362C263.829 9.59043 263.831 9.60055 263.832 9.60414C263.834 9.60867 263.845 9.6451 263.85 9.73081C263.856 9.81957 263.856 9.97844 263.821 10.2208L279.657 12.5064C280.409 7.29322 278.995 2.31515 275.292 -1.61928L263.64 9.34654ZM263.8 10.3714C263.723 10.9916 263.472 11.7168 262.297 12.6818L272.453 25.0454C276.369 21.8286 279.027 17.5539 279.677 12.3559L263.8 10.3714ZM262.261 12.7118C261.108 13.6704 260.079 14 258.92 14V30C264.005 30 268.612 28.2387 272.489 25.0155L262.261 12.7118ZM299.977 60.1818L292.091 58.8376L292.089 58.8521L292.086 58.8666L299.977 60.1818ZM293.341 100V108H300.118L301.232 101.315L293.341 100ZM271.114 100L263.222 98.6848L261.67 108H271.114V100ZM282.75 30.1818V22.1818H275.973L274.859 28.8666L282.75 30.1818ZM303.886 30.1818L311.782 31.4698L313.297 22.1818H303.886V30.1818ZM301.795 43L293.9 41.7121L292.385 51H301.795V43ZM302.568 43V51H307.466L309.693 46.6382L302.568 43ZM312.068 32.9545L316.102 39.8629L316.121 39.852L316.14 39.841L312.068 32.9545ZM338.295 32.5455L333.858 39.2019L333.858 39.2019L338.295 32.5455ZM345.25 41.7273L337.69 44.3442L337.693 44.3532L337.696 44.3623L345.25 41.7273ZM345.932 55.5L338.048 54.1407L338.045 54.1595L338.042 54.1783L345.932 55.5ZM338.477 100V108H345.249L346.367 101.322L338.477 100ZM316.25 100L308.359 98.6863L306.808 108H316.25V100ZM322.932 59.8636L315.049 58.4981L315.045 58.524L315.04 58.5499L322.932 59.8636ZM321.523 50.8182L315.007 55.4596L315.043 55.5105L315.08 55.5607L321.523 50.8182ZM307.386 49.0455L311.098 56.1321L311.119 56.1213L311.14 56.1104L307.386 49.0455ZM302.568 53.3636L295.994 48.8044L295.969 48.8405L295.945 48.8768L302.568 53.3636ZM292.086 58.8666L285.45 98.6848L301.232 101.315L307.868 61.497L292.086 58.8666ZM293.341 92H271.114V108H293.341V92ZM279.005 101.315L290.641 31.497L274.859 28.8666L263.222 98.6848L279.005 101.315ZM282.75 38.1818H303.886V22.1818H282.75V38.1818ZM295.991 28.8939L293.9 41.7121L309.691 44.2879L311.782 31.4698L295.991 28.8939ZM301.795 51H302.568V35H301.795V51ZM309.693 46.6382C311.177 43.7318 313.27 41.517 316.102 39.8629L308.034 26.0461C302.564 29.2406 298.323 33.7227 295.443 39.3618L309.693 46.6382ZM316.14 39.841C318.966 38.1697 322.208 37.2727 326.068 37.2727V21.2727C319.564 21.2727 313.473 22.8303 307.997 26.0681L316.14 39.841ZM326.068 37.2727C329.749 37.2727 332.184 38.0861 333.858 39.2019L342.733 25.8891C337.861 22.6412 332.145 21.2727 326.068 21.2727V37.2727ZM333.858 39.2019C335.586 40.3541 336.862 41.9506 337.69 44.3442L352.81 39.1104C350.911 33.6252 347.55 29.1004 342.733 25.8891L333.858 39.2019ZM337.696 44.3623C338.501 46.6683 338.792 49.8249 338.048 54.1407L353.816 56.8593C354.89 50.6296 354.726 44.6045 352.804 39.0923L337.696 44.3623ZM338.042 54.1783L330.587 98.6783L346.367 101.322L353.822 56.8217L338.042 54.1783ZM338.477 92H316.25V108H338.477V92ZM324.141 101.314L330.823 61.1774L315.04 58.5499L308.359 98.6863L324.141 101.314ZM330.814 61.2291C331.687 56.1915 331.344 50.6657 327.965 46.0756L315.08 55.5607C314.913 55.3343 315.51 55.8388 315.049 58.4981L330.814 61.2291ZM328.039 46.1767C324.506 41.2174 319.058 39.5 313.795 39.5V55.5C314.786 55.5 315.196 55.6562 315.253 55.6805C315.273 55.6894 315.23 55.6729 315.159 55.6157C315.086 55.5574 315.033 55.497 315.007 55.4596L328.039 46.1767ZM313.795 39.5C310.238 39.5 306.8 40.2979 303.633 41.9805L311.14 56.1104C311.851 55.7324 312.687 55.5 313.795 55.5V39.5ZM303.674 41.9588C300.552 43.5945 297.987 45.9311 295.994 48.8044L309.142 57.9228C309.755 57.0386 310.403 56.4965 311.098 56.1321L303.674 41.9588ZM295.945 48.8768C293.921 51.8649 292.701 55.2583 292.091 58.8376L307.864 61.5261C308.163 59.772 308.67 58.6199 309.192 57.8504L295.945 48.8768Z" fill="black"/>
</svg>
